ISO-10303-21;
HEADER;
FILE_DESCRIPTION(('STEP AP203'),
    '1');
FILE_NAME('Крышка (2)',
    '',
    ('UNSPECIFIED'),
    ('UNSPECIFIED'),
    'C3D Converter',
    'C3D Toolkit',
    '');
FILE_SCHEMA(('CONFIG_CONTROL_DESIGN'));
ENDSEC;

DATA;
#1=PRODUCT_DEFINITION('','UNSPECIFIED',#31,#34);
#2=SHAPE_DEFINITION_REPRESENTATION(#29,#3);
#3=SHAPE_REPRESENTATION('NONE',(#4),#8);
#4=AXIS2_PLACEMENT_3D('',#5,#6,#7);
#5=CARTESIAN_POINT('',(0.,0.,0.));
#6=DIRECTION('',(0.,0.,1.));
#7=DIRECTION('',(1.,0.,0.));
#8=(GEOMETRIC_REPRESENTATION_CONTEXT(3)GLOBAL_UNCERTAINTY_ASSIGNED_CONTEXT((#10))
GLOBAL_UNIT_ASSIGNED_CONTEXT((#9,#11,#12))REPRESENTATION_CONTEXT('NONE','NONE'));
#9=(LENGTH_UNIT()NAMED_UNIT(*)SI_UNIT(.MILLI.,.METRE.));
#10=UNCERTAINTY_MEASURE_WITH_UNIT(LENGTH_MEASURE(1.E-5),#9,'NONE','NONE');
#11=(NAMED_UNIT(*)PLANE_ANGLE_UNIT()SI_UNIT($,.RADIAN.));
#12=(NAMED_UNIT(*)SI_UNIT($,.STERADIAN.)SOLID_ANGLE_UNIT());
#13=MANIFOLD_SOLID_BREP('',#14);
#14=CLOSED_SHELL('',(#56,#57,#58,#59,#60,#61,#62,#63,#64,#65,#66,#67,#68,#69,#70,
#71));
#15=COLOUR_RGB('',0.564705882352941,0.564705882352941,0.564705882352941);
#16=FILL_AREA_STYLE_COLOUR('',#15);
#17=FILL_AREA_STYLE($,(#16));
#18=SURFACE_STYLE_FILL_AREA(#17);
#19=SURFACE_SIDE_STYLE('',(#18));
#20=SURFACE_STYLE_USAGE(.BOTH.,#19);
#21=PRESENTATION_STYLE_ASSIGNMENT((#20));
#22=MECHANICAL_DESIGN_GEOMETRIC_PRESENTATION_REPRESENTATION('NONE',(#23,#77,#83,
#89,#95,#101),#8);
#23=STYLED_ITEM('',(#21),#13);
#24=ADVANCED_BREP_SHAPE_REPRESENTATION('NONE',(#13),#8);
#25=SHAPE_REPRESENTATION_RELATIONSHIP('','',#3,#24);
#26=GEOMETRIC_CURVE_SET('',(#72,#78,#84,#90,#96));
#27=GEOMETRICALLY_BOUNDED_WIREFRAME_SHAPE_REPRESENTATION('NONE',(#26),#8);
#28=SHAPE_REPRESENTATION_RELATIONSHIP('','',#3,#27);
#29=PRODUCT_DEFINITION_SHAPE('NONE','NONE',#1);
#30=MECHANICAL_CONTEXT('NONE',#35,'mechanical');
#31=PRODUCT_DEFINITION_FORMATION_WITH_SPECIFIED_SOURCE('ANY','UNSPECIFIED',#32,.NOT_KNOWN.);
#32=PRODUCT('','\X2\041A0440044B0448043A0430\X0\','NONE',(#30));
#33=PRODUCT_RELATED_PRODUCT_CATEGORY('detail','',(#32));
#34=DESIGN_CONTEXT('detailed design',#35,'design');
#35=APPLICATION_CONTEXT('configuration controlled 3d designs of mechanical parts and assemblies');
#36=APPLICATION_PROTOCOL_DEFINITION('international standard','config_control_design',
1994,#35);
#37=CC_DESIGN_DATE_AND_TIME_ASSIGNMENT(#38,#42,(#1));
#38=DATE_AND_TIME(#39,#40);
#39=CALENDAR_DATE(0,1,1);
#40=LOCAL_TIME(0,0,0.,#41);
#41=COORDINATED_UNIVERSAL_TIME_OFFSET(0,0,.AHEAD.);
#42=DATE_TIME_ROLE('creation_date');
#43=CC_DESIGN_APPROVAL(#44,(#1));
#44=APPROVAL(#45,'UNSPECIFIED');
#45=APPROVAL_STATUS('not_yet_approved');
#46=APPROVAL_DATE_TIME(#47,#44);
#47=DATE_AND_TIME(#48,#49);
#48=CALENDAR_DATE(0,1,1);
#49=LOCAL_TIME(0,0,0.,#50);
#50=COORDINATED_UNIVERSAL_TIME_OFFSET(0,0,.AHEAD.);
#51=PERSON('UNSPECIFIED','ovostch42','UNSPECIFIED',('UNSPECIFIED'),('UNSPECIFIED'),
('UNSPECIFIED'));
#52=ORGANIZATION('UNSPECIFIED','UNSPECIFIED','UNSPECIFIED');
#53=PERSON_AND_ORGANIZATION(#51,#52);
#54=PERSON_AND_ORGANIZATION_ROLE('creator');
#55=CC_DESIGN_PERSON_AND_ORGANIZATION_ASSIGNMENT(#53,#54,(#31,#1));
#56=ADVANCED_FACE('',(#102,#104,#106,#108,#110,#112,#114,#116,#118,#120,#122,#124),
#126,.F.);
#57=ADVANCED_FACE('',(#131,#133,#135,#137,#139,#141,#143,#145,#147,#149,#151,#153),
#155,.T.);
#58=ADVANCED_FACE('',(#160,#162),#164,.F.);
#59=ADVANCED_FACE('',(#169,#171),#173,.F.);
#60=ADVANCED_FACE('',(#178,#180),#182,.F.);
#61=ADVANCED_FACE('',(#187,#189),#191,.F.);
#62=ADVANCED_FACE('',(#196,#198),#200,.F.);
#63=ADVANCED_FACE('',(#205,#207),#209,.F.);
#64=ADVANCED_FACE('',(#214,#216),#218,.F.);
#65=ADVANCED_FACE('',(#223,#225),#227,.F.);
#66=ADVANCED_FACE('',(#232,#234),#236,.F.);
#67=ADVANCED_FACE('',(#241,#243),#245,.F.);
#68=ADVANCED_FACE('',(#250,#252),#254,.F.);
#69=ADVANCED_FACE('',(#259,#261),#263,.F.);
#70=ADVANCED_FACE('',(#268,#270),#272,.T.);
#71=ADVANCED_FACE('',(#277,#279),#281,.T.);
#72=B_SPLINE_CURVE_WITH_KNOTS('',3,
(#286,#287,#288,#289,#290,#291,#292,#293,#294,#295,#296,#297,#298,#299,#300,#301,
#302,#303,#304,#305,#306,#307,#308,#309,#310,#311,#312,#313,#314,#315,#316,#317,
#318,#319,#320,#321,#322,#323,#324,#325,#326,#327,#328,#329,#330,#331,#332,#333,
#334,#335,#336,#337,#338,#339,#340,#341,#342,#343,#344,#345,#346,#347,#348,#349,
#350,#351,#352,#353,#354,#355,#356,#357,#358,#359,#360,#361,#362,#363,#364,#365,
#366,#367,#368,#369,#370,#371,#372,#373,#374,#375,#376,#377,#378,#379,#380,#381,
#382,#383,#384,#385,#386,#387,#388,#389,#390,#391,#392,#393,#394,#395,#396,#397,
#398,#399,#400,#401,#402,#403,#404,#405,#406,#407,#408,#409,#410,#411,#412,#413,
#414,#415,#416,#417,#418,#419,#420,#421,#422,#423,#424,#425,#426,#427,#428,#429,
#430,#431,#432,#433,#434,#435,#436,#437,#438,#439,#440,#441,#442,#443,#444,#445,
#446,#447,#448,#449,#450,#451,#452,#453,#454,#455,#456,#457,#458,#459,#460,#461,
#462,#463,#464,#465,#466,#467,#468,#469,#470,#471,#472,#473,#474,#475,#476,#477,
#478,#479,#480,#481,#482,#483,#484,#485,#486,#487,#488,#489,#490,#491,#492,#493,
#494,#495,#496,#497,#498,#499,#500,#501,#502,#503,#504,#505,#506,#507,#508,#509,
#510,#511,#512,#513,#514,#515,#516,#517,#518,#519,#520,#521,#522,#523,#524,#525,
#526,#527,#528,#529,#530,#531,#532,#533,#534,#535,#536,#537,#538,#539,#540,#541,
#542,#543,#544,#545,#546,#547,#548,#549,#550,#551,#552,#553,#554,#555,#556,#557,
#558,#559,#560,#561,#562,#563,#564,#565,#566,#567,#568,#569,#570,#571,#572,#573,
#574,#575,#576,#577,#578,#579,#580,#581,#582,#583,#584,#585,#586,#587,#588,#589,
#590,#591,#592,#593,#594,#595,#596,#597),
.UNSPECIFIED.,.F.,.F.,
(4,1,1,1,1,1,1,1,1,1,1,1,1,1,1,1,1,1,1,1,1,1,1,1,1,1,1,1,1,1,1,1,1,1,1,1,1,1,1,1,
1,1,1,1,1,1,1,1,1,1,1,1,1,1,1,1,1,1,1,1,1,1,1,1,1,1,1,1,1,1,1,1,1,1,1,1,1,1,1,1,
1,1,1,1,1,1,1,1,1,1,1,1,1,1,1,1,1,1,1,1,1,1,1,1,1,1,1,1,1,1,1,1,1,1,1,1,1,1,1,1,
1,1,1,1,1,1,1,1,1,1,1,1,1,1,1,1,1,1,1,1,1,1,1,1,1,1,1,1,1,1,1,1,1,1,1,1,1,1,1,1,
1,1,1,1,1,1,1,1,1,1,1,1,1,1,1,1,1,1,1,1,1,1,1,1,1,1,1,1,1,1,1,1,1,1,1,1,1,1,1,1,
1,1,1,1,1,1,1,1,1,1,1,1,1,1,1,1,1,1,1,1,1,1,1,1,1,1,1,1,1,1,1,1,1,1,1,1,1,1,1,1,
1,1,1,1,1,1,1,1,1,1,1,1,1,1,1,1,1,1,1,1,1,1,1,1,1,1,1,1,1,1,1,1,1,1,1,1,1,1,1,1,
1,1,1,1,1,1,1,1,1,1,1,1,1,1,1,1,1,1,1,1,1,1,1,1,1,1,1,1,1,4),
(0.,0.00323624595469256,0.00647249190938511,0.00970873786407767,0.0129449838187702,
0.0161812297734628,0.0194174757281553,0.0226537216828479,0.0258899676375404,0.029126213592233,
0.0323624595469256,0.0355987055016181,0.0388349514563107,0.0420711974110032,0.0453074433656958,
0.0485436893203883,0.0517799352750809,0.0550161812297735,0.058252427184466,0.0614886731391586,
0.0647249190938511,0.0679611650485437,0.0711974110032362,0.0744336569579288,0.0776699029126213,
0.0809061488673139,0.0841423948220064,0.087378640776699,0.0906148867313916,0.0938511326860841,
0.0970873786407767,0.100323624595469,0.103559870550162,0.106796116504854,0.110032362459547,
0.113268608414239,0.116504854368932,0.119741100323625,0.122977346278317,0.12621359223301,
0.129449838187702,0.132686084142395,0.135922330097087,0.13915857605178,0.142394822006472,
0.145631067961165,0.148867313915858,0.15210355987055,0.155339805825243,0.158576051779935,
0.161812297734628,0.16504854368932,0.168284789644013,0.171521035598705,0.174757281553398,
0.177993527508091,0.181229773462783,0.184466019417476,0.187702265372168,0.190938511326861,
0.194174757281553,0.197411003236246,0.200647249190938,0.203883495145631,0.207119741100324,
0.210355987055016,0.213592233009709,0.216828478964401,0.220064724919094,0.223300970873786,
0.226537216828479,0.229773462783171,0.233009708737864,0.236245954692557,0.239482200647249,
0.242718446601942,0.245954692556634,0.249190938511327,0.252427184466019,0.255663430420712,
0.258899676375404,0.262135922330097,0.26537216828479,0.268608414239482,0.271844660194175,
0.275080906148867,0.27831715210356,0.281553398058252,0.284789644012945,0.288025889967637,
0.29126213592233,0.294498381877023,0.297734627831715,0.300970873786408,0.3042071197411,
0.307443365695793,0.310679611650485,0.313915857605178,0.31715210355987,0.320388349514563,
0.323624595469256,0.326860841423948,0.330097087378641,0.333333333333333,0.336569579288026,
0.339805825242718,0.343042071197411,0.346278317152103,0.349514563106796,0.352750809061489,
0.355987055016181,0.359223300970874,0.362459546925566,0.365695792880259,0.368932038834951,
0.372168284789644,0.375404530744336,0.378640776699029,0.381877022653722,0.385113268608414,
0.388349514563107,0.391585760517799,0.394822006472492,0.398058252427184,0.401294498381877,
0.404530744336569,0.407766990291262,0.411003236245955,0.414239482200647,0.41747572815534,
0.420711974110032,0.423948220064725,0.427184466019417,0.43042071197411,0.433656957928802,
0.436893203883495,0.440129449838188,0.44336569579288,0.446601941747573,0.449838187702265,
0.453074433656958,0.45631067961165,0.459546925566343,0.462783171521035,0.466019417475728,
0.469255663430421,0.472491909385113,0.475728155339806,0.478964401294498,0.482200647249191,
0.485436893203883,0.488673139158576,0.491909385113268,0.495145631067961,0.498381877022654,
0.501618122977346,0.504854368932039,0.508090614886731,0.511326860841424,0.514563106796116,
0.517799352750809,0.521035598705502,0.524271844660194,0.527508090614887,0.530744336569579,
0.533980582524272,0.537216828478964,0.540453074433657,0.543689320388349,0.546925566343042,
0.550161812297735,0.553398058252427,0.55663430420712,0.559870550161812,0.563106796116505,
0.566343042071197,0.56957928802589,0.572815533980582,0.576051779935275,0.579288025889968,
0.58252427184466,0.585760517799353,0.588996763754045,0.592233009708738,0.59546925566343,
0.598705501618123,0.601941747572815,0.605177993527508,0.608414239482201,0.611650485436893,
0.614886731391586,0.618122977346278,0.621359223300971,0.624595469255663,0.627831715210356,
0.631067961165048,0.634304207119741,0.637540453074434,0.640776699029126,0.644012944983819,
0.647249190938511,0.650485436893204,0.653721682847896,0.656957928802589,0.660194174757281,
0.663430420711974,0.666666666666667,0.669902912621359,0.673139158576052,0.676375404530744,
0.679611650485437,0.682847896440129,0.686084142394822,0.689320388349514,0.692556634304207,
0.6957928802589,0.699029126213592,0.702265372168285,0.705501618122977,0.70873786407767,
0.711974110032362,0.715210355987055,0.718446601941747,0.72168284789644,0.724919093851133,
0.728155339805825,0.731391585760518,0.73462783171521,0.737864077669903,0.741100323624595,
0.744336569579288,0.74757281553398,0.750809061488673,0.754045307443366,0.757281553398058,
0.760517799352751,0.763754045307443,0.766990291262136,0.770226537216828,0.773462783171521,
0.776699029126213,0.779935275080906,0.783171521035599,0.786407766990291,0.789644012944984,
0.792880258899676,0.796116504854369,0.799352750809061,0.802588996763754,0.805825242718446,
0.809061488673139,0.812297734627832,0.815533980582524,0.818770226537216,0.822006472491909,
0.825242718446602,0.828478964401294,0.831715210355987,0.83495145631068,0.838187702265372,
0.841423948220065,0.844660194174758,0.84789644012945,0.851132686084143,0.854368932038836,
0.857605177993528,0.860841423948221,0.864077669902913,0.867313915857606,0.870550161812299,
0.873786407766992,0.877022653721684,0.880258899676377,0.883495145631069,0.886731391585762,
0.889967637540455,0.893203883495147,0.89644012944984,0.899676375404533,0.902912621359225,
0.906148867313918,0.90938511326861,0.912621359223303,0.915857605177996,0.919093851132688,
0.922330097087381,0.925566343042074,0.928802588996766,0.932038834951459,0.935275080906152,
0.938511326860844,0.941747572815537,0.94498381877023,0.948220064724922,0.951456310679615,
0.954692556634308,0.957928802589,0.961165048543693,0.964401294498385,0.967637540453078,
0.970873786407771,0.974110032362464,0.977346278317156,0.980582524271849,0.983818770226541,
0.987055016181234,0.990291262135927,0.993527508090619,0.996763754045312,1.),
.UNSPECIFIED.);
#73=COLOUR_RGB('',0.564705882352941,0.564705882352941,0.564705882352941);
#74=PRESENTATION_STYLE_ASSIGNMENT((#75));
#75=CURVE_STYLE('',#76,POSITIVE_LENGTH_MEASURE(0.1),#73);
#76=PRE_DEFINED_CURVE_FONT('continuous');
#77=STYLED_ITEM('',(#74),#72);
#78=CIRCLE('',#598,6.);
#79=COLOUR_RGB('',0.564705882352941,0.564705882352941,0.564705882352941);
#80=PRESENTATION_STYLE_ASSIGNMENT((#81));
#81=CURVE_STYLE('',#82,POSITIVE_LENGTH_MEASURE(0.1),#79);
#82=PRE_DEFINED_CURVE_FONT('continuous');
#83=STYLED_ITEM('',(#80),#78);
#84=CIRCLE('',#602,6.);
#85=COLOUR_RGB('',0.564705882352941,0.564705882352941,0.564705882352941);
#86=PRESENTATION_STYLE_ASSIGNMENT((#87));
#87=CURVE_STYLE('',#88,POSITIVE_LENGTH_MEASURE(0.1),#85);
#88=PRE_DEFINED_CURVE_FONT('continuous');
#89=STYLED_ITEM('',(#86),#84);
#90=CIRCLE('',#606,5.18810118375);
#91=COLOUR_RGB('',0.564705882352941,0.564705882352941,0.564705882352941);
#92=PRESENTATION_STYLE_ASSIGNMENT((#93));
#93=CURVE_STYLE('',#94,POSITIVE_LENGTH_MEASURE(0.1),#91);
#94=PRE_DEFINED_CURVE_FONT('continuous');
#95=STYLED_ITEM('',(#92),#90);
#96=CIRCLE('',#610,5.18810118375);
#97=COLOUR_RGB('',0.564705882352941,0.564705882352941,0.564705882352941);
#98=PRESENTATION_STYLE_ASSIGNMENT((#99));
#99=CURVE_STYLE('',#100,POSITIVE_LENGTH_MEASURE(0.1),#97);
#100=PRE_DEFINED_CURVE_FONT('continuous');
#101=STYLED_ITEM('',(#98),#96);
#102=FACE_BOUND('',#103,.T.);
#103=EDGE_LOOP('',(#614));
#104=FACE_BOUND('',#105,.T.);
#105=EDGE_LOOP('',(#615));
#106=FACE_BOUND('',#107,.T.);
#107=EDGE_LOOP('',(#616));
#108=FACE_BOUND('',#109,.T.);
#109=EDGE_LOOP('',(#617));
#110=FACE_BOUND('',#111,.T.);
#111=EDGE_LOOP('',(#618));
#112=FACE_BOUND('',#113,.T.);
#113=EDGE_LOOP('',(#619));
#114=FACE_BOUND('',#115,.T.);
#115=EDGE_LOOP('',(#620));
#116=FACE_BOUND('',#117,.T.);
#117=EDGE_LOOP('',(#621));
#118=FACE_BOUND('',#119,.T.);
#119=EDGE_LOOP('',(#622));
#120=FACE_BOUND('',#121,.T.);
#121=EDGE_LOOP('',(#623));
#122=FACE_BOUND('',#123,.T.);
#123=EDGE_LOOP('',(#624));
#124=FACE_BOUND('',#125,.T.);
#125=EDGE_LOOP('',(#625));
#126=PLANE('',#127);
#127=AXIS2_PLACEMENT_3D('',#128,#129,#130);
#128=CARTESIAN_POINT('',(0.,0.,0.));
#129=DIRECTION('',(0.,0.,-1.));
#130=DIRECTION('',(1.,1.22464679914735E-16,0.));
#131=FACE_BOUND('',#132,.T.);
#132=EDGE_LOOP('',(#626));
#133=FACE_BOUND('',#134,.T.);
#134=EDGE_LOOP('',(#627));
#135=FACE_BOUND('',#136,.T.);
#136=EDGE_LOOP('',(#628));
#137=FACE_BOUND('',#138,.T.);
#138=EDGE_LOOP('',(#629));
#139=FACE_BOUND('',#140,.T.);
#140=EDGE_LOOP('',(#630));
#141=FACE_BOUND('',#142,.T.);
#142=EDGE_LOOP('',(#631));
#143=FACE_BOUND('',#144,.T.);
#144=EDGE_LOOP('',(#632));
#145=FACE_BOUND('',#146,.T.);
#146=EDGE_LOOP('',(#633));
#147=FACE_BOUND('',#148,.T.);
#148=EDGE_LOOP('',(#634));
#149=FACE_BOUND('',#150,.T.);
#150=EDGE_LOOP('',(#635));
#151=FACE_BOUND('',#152,.T.);
#152=EDGE_LOOP('',(#636));
#153=FACE_BOUND('',#154,.T.);
#154=EDGE_LOOP('',(#637));
#155=PLANE('',#156);
#156=AXIS2_PLACEMENT_3D('',#157,#158,#159);
#157=CARTESIAN_POINT('',(0.,0.,-4.));
#158=DIRECTION('',(0.,0.,-1.));
#159=DIRECTION('',(1.,1.22464679914735E-16,0.));
#160=FACE_OUTER_BOUND('',#161,.T.);
#161=EDGE_LOOP('',(#638));
#162=FACE_OUTER_BOUND('',#163,.T.);
#163=EDGE_LOOP('',(#639));
#164=CYLINDRICAL_SURFACE('',#165,5.18810118375);
#165=AXIS2_PLACEMENT_3D('',#166,#167,#168);
#166=CARTESIAN_POINT('',(23.1163338182485,19.1215875597008,6.));
#167=DIRECTION('',(0.,0.,-1.));
#168=DIRECTION('',(-6.12323399573676E-17,1.,0.));
#169=FACE_OUTER_BOUND('',#170,.T.);
#170=EDGE_LOOP('',(#640));
#171=FACE_OUTER_BOUND('',#172,.T.);
#172=EDGE_LOOP('',(#641));
#173=CYLINDRICAL_SURFACE('',#174,42.95);
#174=AXIS2_PLACEMENT_3D('',#175,#176,#177);
#175=CARTESIAN_POINT('',(0.,0.,0.));
#176=DIRECTION('',(0.,0.,1.));
#177=DIRECTION('',(1.,0.,0.));
#178=FACE_OUTER_BOUND('',#179,.T.);
#179=EDGE_LOOP('',(#642));
#180=FACE_OUTER_BOUND('',#181,.T.);
#181=EDGE_LOOP('',(#643));
#182=CYLINDRICAL_SURFACE('',#183,2.);
#183=AXIS2_PLACEMENT_3D('',#184,#185,#186);
#184=CARTESIAN_POINT('',(0.,0.,6.));
#185=DIRECTION('',(0.,0.,-1.));
#186=DIRECTION('',(-6.12323399573677E-17,-1.,0.));
#187=FACE_OUTER_BOUND('',#188,.T.);
#188=EDGE_LOOP('',(#644));
#189=FACE_OUTER_BOUND('',#190,.T.);
#190=EDGE_LOOP('',(#645));
#191=CYLINDRICAL_SURFACE('',#192,1.5);
#192=AXIS2_PLACEMENT_3D('',#193,#194,#195);
#193=CARTESIAN_POINT('',(-1.53080849893419E-15,5.,0.));
#194=DIRECTION('',(0.,0.,-1.));
#195=DIRECTION('',(-3.06161699786838E-16,1.,0.));
#196=FACE_OUTER_BOUND('',#197,.T.);
#197=EDGE_LOOP('',(#646));
#198=FACE_OUTER_BOUND('',#199,.T.);
#199=EDGE_LOOP('',(#647));
#200=CYLINDRICAL_SURFACE('',#201,1.5);
#201=AXIS2_PLACEMENT_3D('',#202,#203,#204);
#202=CARTESIAN_POINT('',(-5.,-1.22464679914735E-15,0.));
#203=DIRECTION('',(0.,0.,-1.));
#204=DIRECTION('',(-1.,-2.44929359829471E-16,0.));
#205=FACE_OUTER_BOUND('',#206,.T.);
#206=EDGE_LOOP('',(#648));
#207=FACE_OUTER_BOUND('',#208,.T.);
#208=EDGE_LOOP('',(#649));
#209=CYLINDRICAL_SURFACE('',#210,1.5);
#210=AXIS2_PLACEMENT_3D('',#211,#212,#213);
#211=CARTESIAN_POINT('',(9.18485099360515E-16,-5.,0.));
#212=DIRECTION('',(0.,0.,-1.));
#213=DIRECTION('',(1.83697019872103E-16,-1.,0.));
#214=FACE_OUTER_BOUND('',#215,.T.);
#215=EDGE_LOOP('',(#650));
#216=FACE_OUTER_BOUND('',#217,.T.);
#217=EDGE_LOOP('',(#651));
#218=CYLINDRICAL_SURFACE('',#219,1.5);
#219=AXIS2_PLACEMENT_3D('',#220,#221,#222);
#220=CARTESIAN_POINT('',(5.,6.12323399573677E-16,0.));
#221=DIRECTION('',(0.,0.,-1.));
#222=DIRECTION('',(1.,1.22464679914735E-16,0.));
#223=FACE_OUTER_BOUND('',#224,.T.);
#224=EDGE_LOOP('',(#652));
#225=FACE_OUTER_BOUND('',#226,.T.);
#226=EDGE_LOOP('',(#653));
#227=CYLINDRICAL_SURFACE('',#228,1.5);
#228=AXIS2_PLACEMENT_3D('',#229,#230,#231);
#229=CARTESIAN_POINT('',(40.,1.46957615897682E-14,0.));
#230=DIRECTION('',(0.,0.,-1.));
#231=DIRECTION('',(-1.22464679914735E-16,1.,0.));
#232=FACE_OUTER_BOUND('',#233,.T.);
#233=EDGE_LOOP('',(#654));
#234=FACE_OUTER_BOUND('',#235,.T.);
#235=EDGE_LOOP('',(#655));
#236=CYLINDRICAL_SURFACE('',#237,1.5);
#237=AXIS2_PLACEMENT_3D('',#238,#239,#240);
#238=CARTESIAN_POINT('',(-1.22464679914735E-14,40.,0.));
#239=DIRECTION('',(0.,0.,-1.));
#240=DIRECTION('',(-1.,-1.22464679914735E-16,0.));
#241=FACE_OUTER_BOUND('',#242,.T.);
#242=EDGE_LOOP('',(#656));
#243=FACE_OUTER_BOUND('',#244,.T.);
#244=EDGE_LOOP('',(#657));
#245=CYLINDRICAL_SURFACE('',#246,1.5);
#246=AXIS2_PLACEMENT_3D('',#247,#248,#249);
#247=CARTESIAN_POINT('',(-40.,-9.79717439317882E-15,0.));
#248=DIRECTION('',(0.,0.,-1.));
#249=DIRECTION('',(1.22464679914735E-16,-1.,0.));
#250=FACE_OUTER_BOUND('',#251,.T.);
#251=EDGE_LOOP('',(#658));
#252=FACE_OUTER_BOUND('',#253,.T.);
#253=EDGE_LOOP('',(#659));
#254=CYLINDRICAL_SURFACE('',#255,1.5);
#255=AXIS2_PLACEMENT_3D('',#256,#257,#258);
#256=CARTESIAN_POINT('',(7.34788079488412E-15,-40.,0.));
#257=DIRECTION('',(0.,0.,-1.));
#258=DIRECTION('',(1.,1.22464679914735E-16,0.));
#259=FACE_OUTER_BOUND('',#260,.T.);
#260=EDGE_LOOP('',(#660));
#261=FACE_OUTER_BOUND('',#262,.T.);
#262=EDGE_LOOP('',(#661));
#263=CYLINDRICAL_SURFACE('',#264,3.);
#264=AXIS2_PLACEMENT_3D('',#265,#266,#267);
#265=CARTESIAN_POINT('',(-17.526189597629,-14.4783274996791,6.));
#266=DIRECTION('',(0.,0.,-1.));
#267=DIRECTION('',(1.,1.22464679914735E-16,0.));
#268=FACE_OUTER_BOUND('',#269,.T.);
#269=EDGE_LOOP('',(#662));
#270=FACE_OUTER_BOUND('',#271,.T.);
#271=EDGE_LOOP('',(#663));
#272=CYLINDRICAL_SURFACE('',#273,45.);
#273=AXIS2_PLACEMENT_3D('',#274,#275,#276);
#274=CARTESIAN_POINT('',(0.,0.,0.));
#275=DIRECTION('',(0.,0.,1.));
#276=DIRECTION('',(1.,0.,0.));
#277=FACE_BOUND('',#278,.T.);
#278=EDGE_LOOP('',(#664));
#279=FACE_BOUND('',#280,.T.);
#280=EDGE_LOOP('',(#665));
#281=PLANE('',#282);
#282=AXIS2_PLACEMENT_3D('',#283,#284,#285);
#283=CARTESIAN_POINT('',(0.,0.,20.));
#284=DIRECTION('',(0.,0.,1.));
#285=DIRECTION('',(1.,0.,0.));
#286=CARTESIAN_POINT('',(23.1163338182485,25.1215875597008,-4.));
#287=CARTESIAN_POINT('',(22.8658847151587,25.1215875597008,-3.98921251348436));
#288=CARTESIAN_POINT('',(22.3649876964044,25.0901841784156,-3.96763754045307));
#289=CARTESIAN_POINT('',(21.62540782801,24.94960666138,-3.93527508090615));
#290=CARTESIAN_POINT('',(20.9091771703644,24.7177582425947,-3.90291262135922));
#291=CARTESIAN_POINT('',(20.2275120787688,24.3982698323027,-3.8705501618123));
#292=CARTESIAN_POINT('',(19.5910879974195,23.9961448450085,-3.83818770226537));
#293=CARTESIAN_POINT('',(19.0098717544013,23.5176808424677,-3.80582524271845));
#294=CARTESIAN_POINT('',(18.4929656134422,22.9703709094155,-3.77346278317152));
#295=CARTESIAN_POINT('',(18.0484646886907,22.362786306559,-3.7411003236246));
#296=CARTESIAN_POINT('',(17.6833301795058,21.7044422385713,-3.70873786407767));
#297=CARTESIAN_POINT('',(17.4032803504701,21.0056488392557,-3.67637540453074));
#298=CARTESIAN_POINT('',(17.2127009800396,20.2773497075573,-3.64401294498382));
#299=CARTESIAN_POINT('',(17.1145766759585,19.5309505230618,-3.61165048543689));
#300=CARTESIAN_POINT('',(17.110444134242,18.7781404249854,-3.57928802588997));
#301=CARTESIAN_POINT('',(17.2003680734161,18.0307089519858,-3.54692556634304));
#302=CARTESIAN_POINT('',(17.3829402209832,17.3003614096475,-3.51456310679612));
#303=CARTESIAN_POINT('',(17.6553013679647,16.5985355571158,-3.48220064724919));
#304=CARTESIAN_POINT('',(18.0131861461364,15.9362224836982,-3.44983818770227));
#305=CARTESIAN_POINT('',(18.4509898267119,15.3237944806305,-3.41747572815534));
#306=CARTESIAN_POINT('',(18.9618560943604,14.7708426036595,-3.38511326860841));
#307=CARTESIAN_POINT('',(19.5377844219546,14.286026470325,-3.35275080906149));
#308=CARTESIAN_POINT('',(20.1697553644848,13.8769386442236,-3.32038834951456));
#309=CARTESIAN_POINT('',(20.8478718099482,13.5499857300921,-3.28802588996764));
#310=CARTESIAN_POINT('',(21.5615139751235,13.3102880418455,-3.25566343042071));
#311=CARTESIAN_POINT('',(22.2995057188887,13.1615994148387,-3.22330097087379));
#312=CARTESIAN_POINT('',(23.0502895684969,13.1062484181498,-3.19093851132686));
#313=CARTESIAN_POINT('',(23.8021077177745,13.1451018875412,-3.15857605177994));
#314=CARTESIAN_POINT('',(24.5431861626835,13.2775513501979,-3.12621359223301));
#315=CARTESIAN_POINT('',(25.2619190905536,13.501522553843,-3.09385113268608));
#316=CARTESIAN_POINT('',(25.9470506353178,13.8135079509947,-3.06148867313916));
#317=CARTESIAN_POINT('',(26.5878511523375,14.2086216296419,-3.02912621359223));
#318=CARTESIAN_POINT('',(27.1742852522276,14.6806758300819,-2.99676375404531));
#319=CARTESIAN_POINT('',(27.6971689621526,15.2222778496146,-2.96440129449838));
#320=CARTESIAN_POINT('',(28.1483135533384,15.8249458174964,-2.93203883495146));
#321=CARTESIAN_POINT('',(28.5206537823567,16.4792415270356,-2.89967637540453));
#322=CARTESIAN_POINT('',(28.8083585378356,17.1749182445861,-2.86731391585761));
#323=CARTESIAN_POINT('',(29.006922159788,17.9010811806438,-2.83495145631068));
#324=CARTESIAN_POINT('',(29.1132350014344,18.646358109958,-2.80258899676375));
#325=CARTESIAN_POINT('',(29.1256321284713,19.3990774686224,-2.77022653721683));
#326=CARTESIAN_POINT('',(29.0439193931196,20.1474511390226,-2.7378640776699));
#327=CARTESIAN_POINT('',(28.869376474617,20.8797590600964,-2.70550161812298));
#328=CARTESIAN_POINT('',(28.6047368385351,21.5845327717808,-2.67313915857605));
#329=CARTESIAN_POINT('',(28.2541449287755,22.2507350192087,-2.64077669902913));
#330=CARTESIAN_POINT('',(27.8230912626462,22.867932603928,-2.6084142394822));
#331=CARTESIAN_POINT('',(27.3183264454771,23.4264597751696,-2.57605177993528));
#332=CARTESIAN_POINT('',(26.7477554513651,23.9175696023415,-2.54368932038835));
#333=CARTESIAN_POINT('',(26.1203138256876,24.3335709581496,-2.51132686084142));
#334=CARTESIAN_POINT('',(25.4458277481418,24.6679489670912,-2.4789644012945));
#335=CARTESIAN_POINT('',(24.7348601478192,24.9154670330145,-2.44660194174757));
#336=CARTESIAN_POINT('',(23.9985452802642,25.072248847918,-2.41423948220065));
#337=CARTESIAN_POINT('',(23.2484143571564,25.1358390976763,-2.38187702265372));
#338=CARTESIAN_POINT('',(22.4962149593784,25.1052419139958,-2.3495145631068));
#339=CARTESIAN_POINT('',(21.7537270615891,24.9809364704165,-2.31715210355987));
#340=CARTESIAN_POINT('',(21.0325785494884,24.7648694781162,-2.28478964401294));
#341=CARTESIAN_POINT('',(20.3440631189007,24.4604246990353,-2.25242718446602));
#342=CARTESIAN_POINT('',(19.6989634085104,24.0723699537721,-2.22006472491909));
#343=CARTESIAN_POINT('',(19.1073821361121,23.6067824541391,-2.18770226537217));
#344=CARTESIAN_POINT('',(18.5785838829036,23.0709536297274,-2.15533980582524));
#345=CARTESIAN_POINT('',(18.1208500035908,22.4732749389611,-2.12297734627832));
#346=CARTESIAN_POINT('',(17.7413489345149,21.8231064529229,-2.09061488673139));
#347=CARTESIAN_POINT('',(17.4460239308689,21.1306302700196,-2.05825242718447));
#348=CARTESIAN_POINT('',(17.2394999911163,20.4066910571184,-2.02588996763754));
#349=CARTESIAN_POINT('',(17.1250114262444,19.6626262143927,-1.99352750809062));
#350=CARTESIAN_POINT('',(17.1043512081659,18.9100883236152,-1.96116504854369));
#351=CARTESIAN_POINT('',(17.1778428905105,18.1608626604848,-1.92880258899676));
#352=CARTESIAN_POINT('',(17.3443355415461,17.4266826288727,-1.89644012944984));
#353=CARTESIAN_POINT('',(17.6012217685843,16.7190460074172,-1.86407766990291));
#354=CARTESIAN_POINT('',(17.9444785515937,16.0490348861774,-1.83171521035599));
#355=CARTESIAN_POINT('',(18.3687302465398,15.4271421132638,-1.79935275080906));
#356=CARTESIAN_POINT('',(18.8673327717731,14.8631069694138,-1.76699029126214));
#357=CARTESIAN_POINT('',(19.4324776590475,14.3657626439667,-1.73462783171521));
#358=CARTESIAN_POINT('',(20.0553143396569,13.9428979008698,-1.70226537216829));
#359=CARTESIAN_POINT('',(20.7260887506014,13.6011351011256,-1.66990291262136));
#360=CARTESIAN_POINT('',(21.4342960901139,13.3458264919338,-1.63754045307443));
#361=CARTESIAN_POINT('',(22.168845330287,13.1809703867144,-1.60517799352751));
#362=CARTESIAN_POINT('',(22.9182329104147,13.1091485486907,-1.57281553398058));
#363=CARTESIAN_POINT('',(23.6707228908916,13.1314857586515,-1.54045307443366));
#364=CARTESIAN_POINT('',(24.4145307463278,13.2476322000878,-1.50809061488673));
#365=CARTESIAN_POINT('',(25.1380079195532,13.4557689375674,-1.47572815533981));
#366=CARTESIAN_POINT('',(25.8298242462628,13.7526364025496,-1.44336569579288));
#367=CARTESIAN_POINT('',(26.479145393404,14.1335854405352,-1.41100323624596));
#368=CARTESIAN_POINT('',(27.0758025324965,14.592650120114,-1.37864077669903));
#369=CARTESIAN_POINT('',(27.6104515906796,15.1226411636711,-1.3462783171521));
#370=CARTESIAN_POINT('',(28.0747195855027,15.7152585365601,-1.31391585760518));
#371=CARTESIAN_POINT('',(28.4613357517535,16.3612214315165,-1.28155339805825));
#372=CARTESIAN_POINT('',(28.7642454067845,17.0504136126648,-1.24919093851133));
#373=CARTESIAN_POINT('',(28.9787047711259,17.7720418429283,-1.2168284789644));
#374=CARTESIAN_POINT('',(29.1013552594282,18.5148049137564,-1.18446601941748));
#375=CARTESIAN_POINT('',(29.1302760782841,19.2670706300453,-1.15210355987055));
#376=CARTESIAN_POINT('',(29.0650143072126,20.0170579785409,-1.11974110032363));
#377=CARTESIAN_POINT('',(28.9065919917132,20.7530216268407,-1.0873786407767));
#378=CARTESIAN_POINT('',(28.6574901373114,21.4634358636071,-1.05501618122977));
#379=CARTESIAN_POINT('',(28.3216098552564,22.1371750993605,-1.02265372168285));
#380=CARTESIAN_POINT('',(27.9042112683598,22.7636881010801,-0.990291262135924));
#381=CARTESIAN_POINT('',(27.4118311337513,23.3331632319768,-0.957928802588997));
#382=CARTESIAN_POINT('',(26.8521804726383,23.8366821086663,-0.925566343042072));
#383=CARTESIAN_POINT('',(26.2340238102587,24.2663592693609,-0.893203883495147));
#384=CARTESIAN_POINT('',(25.5670419172163,24.6154656657797,-0.86084142394822));
#385=CARTESIAN_POINT('',(24.8616802017651,24.8785340448042,-0.828478964401295));
#386=CARTESIAN_POINT('',(24.1289851273269,25.05144456953,-0.79611650485437));
#387=CARTESIAN_POINT('',(23.3804312170605,25.1314893388267,-0.763754045307444));
#388=CARTESIAN_POINT('',(22.6277413547118,25.1174147949849,-0.731391585760519));
#389=CARTESIAN_POINT('',(21.882703195962,25.0094413553174,-0.699029126213594));
#390=CARTESIAN_POINT('',(21.1569845654014,24.8092599602674,-0.666666666666667));
#391=CARTESIAN_POINT('',(20.4619507301426,24.5200055920856,-0.634304207119742));
#392=CARTESIAN_POINT('',(19.8084864116979,24.14620817879,-0.601941747572817));
#393=CARTESIAN_POINT('',(19.2068253235409,23.6937216522892,-0.56957928802589));
#394=CARTESIAN_POINT('',(18.6663899039147,23.1696322716677,-0.537216828478965));
#395=CARTESIAN_POINT('',(18.1956437537829,22.5821476473557,-0.50485436893204));
#396=CARTESIAN_POINT('',(17.8019590908527,21.940468204144,-0.472491909385114));
#397=CARTESIAN_POINT('',(17.4915012954296,21.254643096024,-0.440129449838189));
#398=CARTESIAN_POINT('',(17.2691323562013,20.5354128293267,-0.407766990291263));
#399=CARTESIAN_POINT('',(17.1383347280551,19.7940410587971,-0.375404530744337));
#400=CARTESIAN_POINT('',(17.1011567943713,19.0421381907923,-0.343042071197412));
#401=CARTESIAN_POINT('',(17.1581807878902,18.2914795561053,-0.310679611650487));
#402=CARTESIAN_POINT('',(17.3085136725359,17.5538209999556,-0.278317152103561));
#403=CARTESIAN_POINT('',(17.5498011289924,16.8407147771362,-0.245954692556635));
#404=CARTESIAN_POINT('',(17.87826442501,16.163328635533,-0.21359223300971));
#405=CARTESIAN_POINT('',(18.2887595930251,15.5322709212919,-0.181229773462784));
#406=CARTESIAN_POINT('',(18.7748579883309,14.9574244446149,-0.148867313915859));
#407=CARTESIAN_POINT('',(19.3289469662013,14.4477917079609,-0.116504854368933));
#408=CARTESIAN_POINT('',(19.9423491012921,14.0113539204894,-0.0841423948220073));
#409=CARTESIAN_POINT('',(20.6054580822599,13.654946006679,-0.0517799352750821));
#410=CARTESIAN_POINT('',(21.3078891533937,13.3841495665754,-0.0194174757281566));
#411=CARTESIAN_POINT('',(22.0386417472345,13.2032054639863,0.0129449838187686));
#412=CARTESIAN_POINT('',(22.786271761244,13.1149474115542,0.0453074433656945));
#413=CARTESIAN_POINT('',(23.539070780545,13.1207575928122,0.0776699029126208));
#414=CARTESIAN_POINT('',(24.2852494399814,13.2205450162116,0.110032362459545));
#415=CARTESIAN_POINT('',(25.0131220539152,13.4127469401147,0.142394822006473));
#416=CARTESIAN_POINT('',(25.7112896223306,13.6943533464334,0.174757281553397));
#417=CARTESIAN_POINT('',(26.3688183472374,14.0609540796424,0.207119741100323));
#418=CARTESIAN_POINT('',(26.9754108636815,14.5068079129341,0.239482200647249));
#419=CARTESIAN_POINT('',(27.5215675037647,15.0249324598916,0.271844660194173));
#420=CARTESIAN_POINT('',(27.9987350681638,15.6072135235991,0.3042071197411));
#421=CARTESIAN_POINT('',(28.3994407752819,16.2445321707058,0.336569579288026));
#422=CARTESIAN_POINT('',(28.7174092902949,16.9269075403722,0.36893203883495));
#423=CARTESIAN_POINT('',(28.9476610013334,17.6436531516114,0.401294498381876));
#424=CARTESIAN_POINT('',(29.0865900037275,18.3835442611408,0.433656957928802));
#425=CARTESIAN_POINT('',(29.1320205710242,19.1349936508019,0.466019417475727));
#426=CARTESIAN_POINT('',(29.083241228403,19.8862330915931,0.498381877022653));
#427=CARTESIAN_POINT('',(28.9410158948748,20.6254976424609,0.530744336569579));
#428=CARTESIAN_POINT('',(28.7075719197699,21.3412098975985,0.563106796116504));
#429=CARTESIAN_POINT('',(28.3865652008718,22.0221612968107,0.59546925566343));
#430=CARTESIAN_POINT('',(27.9830229304717,22.6576876594954,0.627831715210356));
#431=CARTESIAN_POINT('',(27.5032648659814,23.237836193255,0.66019417475728));
#432=CARTESIAN_POINT('',(26.9548043580614,23.753521361666,0.692556634304206));
#433=CARTESIAN_POINT('',(26.3462306862352,24.1966671702063,0.724919093851133));
#434=CARTESIAN_POINT('',(25.6870745446957,24.5603336420423,0.757281553398057));
#435=CARTESIAN_POINT('',(24.9876587848925,24.838825502975,0.789644012944983));
#436=CARTESIAN_POINT('',(24.2589367523759,25.027781373463,0.822006472491909));
#437=CARTESIAN_POINT('',(23.5123207496578,25.124242070911,0.854368932038833));
#438=CARTESIAN_POINT('',(22.7595033114811,25.1266969525628,0.88673139158576));
#439=CARTESIAN_POINT('',(22.0122740914547,25.0351075732352,0.919093851132686));
#440=CARTESIAN_POINT('',(21.2823352277384,24.8509082873968,0.95145631067961));
#441=CARTESIAN_POINT('',(20.5811180792812,24.5769837861624,0.983818770226536));
#442=CARTESIAN_POINT('',(19.9196042026541,24.21762392099,1.01618122977346));
#443=CARTESIAN_POINT('',(19.3081533731061,23.7784565215716,1.04854368932039));
#444=CARTESIAN_POINT('',(18.7563413431553,23.2663592600397,1.08090614886731));
#445=CARTESIAN_POINT('',(18.2728098795307,22.6893519417569,1.11326860841424));
#446=CARTESIAN_POINT('',(17.8651314269928,22.05647090949,1.14563106796116));
#447=CARTESIAN_POINT('',(17.5396905184912,21.3776275278912,1.17799352750809));
#448=CARTESIAN_POINT('',(17.3015837888632,20.6634529645155,1.21035598705502));
#449=CARTESIAN_POINT('',(17.1545401579265,19.9251316982176,1.24271844660194));
#450=CARTESIAN_POINT('',(17.100862432957,19.1742263623003,1.27508090614887));
#451=CARTESIAN_POINT('',(17.1413912450982,18.4224966654988,1.30744336569579));
#452=CARTESIAN_POINT('',(17.2754918844828,17.6817152266226,1.33980582524272));
#453=CARTESIAN_POINT('',(17.501064240238,16.9634832070175,1.37216828478964));
#454=CARTESIAN_POINT('',(17.8145756897077,16.2790486281728,1.40453074433657));
#455=CARTESIAN_POINT('',(18.2111164218217,15.6391302197477,1.43689320388349));
#456=CARTESIAN_POINT('',(18.6844763282108,15.0537495566828,1.46925566343042));
#457=CARTESIAN_POINT('',(19.2272422578959,14.5320741142477,1.50161812297735));
#458=CARTESIAN_POINT('',(19.8309141124772,14.0822736988929,1.53398058252427));
#459=CARTESIAN_POINT('',(20.4860379636872,13.7113925033024,1.5663430420712));
#460=CARTESIAN_POINT('',(21.1823541085952,13.4252387893524,1.59870550161812));
#461=CARTESIAN_POINT('',(21.9089577438126,13.2282939266226,1.63106796116505));
#462=CARTESIAN_POINT('',(22.654469742428,13.1236422109779,1.66343042071197));
#463=CARTESIAN_POINT('',(23.4072148591836,13.1129225623137,1.6957928802589));
#464=CARTESIAN_POINT('',(24.1554045730751,13.196302857911,1.72815533980582));
#465=CARTESIAN_POINT('',(24.8873217039293,13.3724773033592,1.76051779935275));
#466=CARTESIAN_POINT('',(25.5915039117345,13.6386868822206,1.79288025889968));
#467=CARTESIAN_POINT('',(26.2569232049927,13.9907625641792,1.8252427184466));
#468=CARTESIAN_POINT('',(26.8731586468681,14.4231905950045,1.85760517799353));
#469=CARTESIAN_POINT('',(27.430559554429,14.9291988458436,1.88996763754045));
#470=CARTESIAN_POINT('',(27.9203966351694,15.5008628695486,1.92233009708738));
#471=CARTESIAN_POINT('',(28.3349986939045,16.1292300031254,1.9546925566343));
#472=CARTESIAN_POINT('',(28.6678727691138,16.8044595727685,1.98705501618123));
#473=CARTESIAN_POINT('',(28.9138058173115,17.5159770057743,2.01941747572815));
#474=CARTESIAN_POINT('',(29.0689463529949,18.2526394358294,2.05177993527508));
#475=CARTESIAN_POINT('',(29.1308647656321,19.0029102081799,2.08414239482201));
#476=CARTESIAN_POINT('',(29.0985913690815,19.755039551805,2.11650485436893));
#477=CARTESIAN_POINT('',(28.9726315875625,20.4972485891433,2.14886731391586));
#478=CARTESIAN_POINT('',(28.7549580403551,21.217913801647,2.18122977346278));
#479=CARTESIAN_POINT('',(28.4489796491861,21.905749062305,2.21359223300971));
#480=CARTESIAN_POINT('',(28.0594882521038,22.5499823843754,2.24595469255663));
#481=CARTESIAN_POINT('',(27.5925835599047,23.1405246183175,2.27831715210356));
#482=CARTESIAN_POINT('',(27.0555776303469,23.6681274550106,2.31067961165048));
#483=CARTESIAN_POINT('',(26.456880356154,24.1245282608172,2.34304207119741));
#484=CARTESIAN_POINT('',(25.8058677601456,24.50257947627,2.37540453074434));
#485=CARTESIAN_POINT('',(25.1127351600877,24.7963605519095,2.40776699029126));
#486=CARTESIAN_POINT('',(24.3883375028047,25.0012706682769,2.44012944983819));
#487=CARTESIAN_POINT('',(23.644019368033,25.1141007880006,2.47249190938511));
#488=CARTESIAN_POINT('',(22.891437304278,25.1330839115922,2.50485436893204));
#489=CARTESIAN_POINT('',(22.142377279019,25.0579227499079,2.53721682847896));
#490=CARTESIAN_POINT('',(21.4085701021204,24.8897943799072,2.56957928802589));
#491=CARTESIAN_POINT('',(20.7015077130523,24.6313318107947,2.60194174757281));
#492=CARTESIAN_POINT('',(20.0322632089885,24.2865827492337,2.63430420711974));
#493=CARTESIAN_POINT('',(19.4113174322718,23.8609462093964,2.66666666666667));
#494=CARTESIAN_POINT('',(18.8483948330098,23.3610879605829,2.69902912621359));
#495=CARTESIAN_POINT('',(18.3523111773062,22.7948361365587,2.73139158576052));
#496=CARTESIAN_POINT('',(17.9308354861285,22.1710586414428,2.76375404530744));
#497=CARTESIAN_POINT('',(17.5905683669435,21.4995242720554,2.79611650485437));
#498=CARTESIAN_POINT('',(17.3368386435354,20.7907497316505,2.82847896440129));
#499=CARTESIAN_POINT('',(17.1736199028558,20.055834930903,2.86084142394822));
#500=CARTESIAN_POINT('',(17.1034682658412,19.3062891554556,2.89320388349514));
#501=CARTESIAN_POINT('',(17.1274823567511,18.5538508223646,2.92556634304207));
#502=CARTESIAN_POINT('',(17.2452860979348,17.8103036481853,2.957928802589));
#503=CARTESIAN_POINT('',(17.4550345994733,17.0872921076348,2.99029126213592));
#504=CARTESIAN_POINT('',(17.7534430514611,16.3961390728812,3.02265372168285));
#505=CARTESIAN_POINT('',(18.1358381664522,15.7476684893557,3.05501618122977));
#506=CARTESIAN_POINT('',(18.5962313664475,15.1520358651107,3.0873786407767));
#507=CARTESIAN_POINT('',(19.1274125682627,14.6185692283798,3.11974110032362));
#508=CARTESIAN_POINT('',(19.7210630985312,14.1556230440572,3.15210355987055));
#509=CARTESIAN_POINT('',(20.3678859700131,13.7704473768677,3.18446601941747));
#510=CARTESIAN_POINT('',(21.0577514789921,13.4690743502247,3.2168284789644));
#511=CARTESIAN_POINT('',(21.7798558436014,13.2562236789101,3.24919093851133));
#512=CARTESIAN_POINT('',(22.5228903986899,13.135228755003,3.28155339805825));
#513=CARTESIAN_POINT('',(23.2752186975181,13.1079844446008,3.31391585760518));
#514=CARTESIAN_POINT('',(24.025058746745,13.1749174128767,3.3462783171521));
#515=CARTESIAN_POINT('',(24.7606675207789,13.3349794422003,3.37864077669903));
#516=CARTESIAN_POINT('',(25.4705248658644,13.585663847968,3.41100323624595));
#517=CARTESIAN_POINT('',(26.1435139138393,13.9230447350567,3.44336569579288));
#518=CARTESIAN_POINT('',(26.7690951801542,14.3418384801184,3.4757281553398));
#519=CARTESIAN_POINT('',(27.3374716196555,14.8354864768596,3.50809061488673));
#520=CARTESIAN_POINT('',(27.8397420552434,15.3962578484553,3.54045307443366));
#521=CARTESIAN_POINT('',(28.2680405766009,16.0153705185484,3.57281553398058));
#522=CARTESIAN_POINT('',(28.6156597259144,16.6831287447781,3.60517799352751));
#523=CARTESIAN_POINT('',(28.8771555414072,17.3890749609636,3.63754045307443));
#524=CARTESIAN_POINT('',(29.0484328136319,18.1221535499881,3.66990291262136));
#525=CARTESIAN_POINT('',(29.1268092193478,18.8708839825832,3.70226537216828));
#526=CARTESIAN_POINT('',(29.1110573285995,19.6235406105383,3.73462783171521));
#527=CARTESIAN_POINT('',(29.0014238271385,20.3683362986463,3.76699029126213));
#528=CARTESIAN_POINT('',(28.7996256531503,21.0936070195788,3.79935275080906));
#529=CARTESIAN_POINT('',(28.5088231087873,21.7879945208048,3.83171521035599));
#530=CARTESIAN_POINT('',(28.1335703676017,22.4406242028601,3.86407766990291));
#531=CARTESIAN_POINT('',(27.6797441529663,23.0412754232672,3.89644012944984));
#532=CARTESIAN_POINT('',(27.1544517044294,23.5805415590267,3.92880258899676));
#533=CARTESIAN_POINT('',(26.5659194733159,24.0499773209872,3.96116504854369));
#534=CARTESIAN_POINT('',(25.9233642906801,24.4422310130474,3.99352750809061));
#535=CARTESIAN_POINT('',(25.2368490252122,24.7511596649176,4.02588996763754));
#536=CARTESIAN_POINT('',(24.5171249915956,24.97192523538,4.05825242718446));
#537=CARTESIAN_POINT('',(23.7754635773144,25.1010703794364,4.09061488673139));
#538=CARTESIAN_POINT('',(23.0234797247519,25.1365725927761,4.12297734627832));
#539=CARTESIAN_POINT('',(22.2729500329764,25.0778758856249,4.15533980582524));
#540=CARTESIAN_POINT('',(21.5356283278702,24.9258994899374,4.18770226537217));
#541=CARTESIAN_POINT('',(20.8230615889009,24.6830234635752,4.22006472491909));
#542=CARTESIAN_POINT('',(20.1464091152554,24.3530514169162,4.25242718446602));
#543=CARTESIAN_POINT('',(19.5162677633206,23.9411509456265,4.28478964401295));
#544=CARTESIAN_POINT('',(18.9425059924164,23.4537727024561,4.31715210355987));
#545=CARTESIAN_POINT('',(18.4341093177422,22.8985493754541,4.3495145631068));
#546=CARTESIAN_POINT('',(17.9990395908524,22.2841761546747,4.38187702265373));
#547=CARTESIAN_POINT('',(17.6441103114292,21.6202745593497,4.41423948220065));
#548=CARTESIAN_POINT('',(17.3748799230578,20.9172417580919,4.44660194174758));
#549=CARTESIAN_POINT('',(17.195564764068,20.1860877418796,4.4789644012945));
#550=CARTESIAN_POINT('',(17.1089730366933,19.4382628998095,4.51132686084143));
#551=CARTESIAN_POINT('',(17.1164608286376,18.6854786979039,4.54368932038835));
#552=CARTESIAN_POINT('',(17.2179108757823,17.9395242692681,4.57605177993528));
#553=CARTESIAN_POINT('',(17.4117343986255,17.2120817879271,4.60841423948221));
#554=CARTESIAN_POINT('',(17.6948959836928,16.514543517716,4.64077669902913));
#555=CARTESIAN_POINT('',(18.0629611202596,15.8578334013701,4.67313915857606));
#556=CARTESIAN_POINT('',(18.5101656479257,15.2522359838543,4.70550161812299));
#557=CARTESIAN_POINT('',(19.0295060274449,14.7072353491136,4.73786407766991));
#558=CARTESIAN_POINT('',(19.6128490211035,14.23136659261,4.77022653721684));
#559=CARTESIAN_POINT('',(20.2510590649764,13.8320821556898,4.80258899676377));
#560=CARTESIAN_POINT('',(20.9341413383202,13.5156351150804,4.8349514563107));
#561=CARTESIAN_POINT('',(21.6513982895364,13.2869812552859,4.86731391585762));
#562=CARTESIAN_POINT('',(22.3915971673967,13.1497014574955,4.89967637540455));
#563=CARTESIAN_POINT('',(23.1431459338726,13.1059456204514,4.93203883495147));
#564=CARTESIAN_POINT('',(23.8942748036515,13.1563989915137,4.9644012944984));
#565=CARTESIAN_POINT('',(24.6332205673001,13.3002714352018,4.99676375404533));
#566=CARTESIAN_POINT('',(25.3484108114449,13.5353098072753,5.02912621359225));
#567=CARTESIAN_POINT('',(26.0286451509523,13.8578332405665,5.06148867313918));
#568=CARTESIAN_POINT('',(26.6632706348821,14.2627907899636,5.0938511326861));
#569=CARTESIAN_POINT('',(27.2423485792355,14.7438405337847,5.12621359223303));
#570=CARTESIAN_POINT('',(27.7568102137764,15.2934488927572,5.15857605177996));
#571=CARTESIAN_POINT('',(28.1985987053885,15.9030086111983,5.19093851132688));
#572=CARTESIAN_POINT('',(28.5607953337815,16.5629735527276,5.22330097087381));
#573=CARTESIAN_POINT('',(28.8377278435445,17.2630081995154,5.25566343042074));
#574=CARTESIAN_POINT('',(29.0250592756783,17.9921495138033,5.28802588996766));
#575=CARTESIAN_POINT('',(29.1198558874415,18.7389786268306,5.32038834951459));
#576=CARTESIAN_POINT('',(29.1206330968368,19.4917996663961,5.35275080906152));
#577=CARTESIAN_POINT('',(29.0273787322152,20.2388229224906,5.38511326860844));
#578=CARTESIAN_POINT('',(28.8415532228929,20.9683494824951,5.41747572815537));
#579=CARTESIAN_POINT('',(28.5660667277948,21.6689544444284,5.4498381877023));
#580=CARTESIAN_POINT('',(28.2052335603077,22.3296658389934,5.48220064724922));
#581=CARTESIAN_POINT('',(27.7647046230799,22.9401364583781,5.51456310679615));
#582=CARTESIAN_POINT('',(27.2513789108895,23.4908059008489,5.54692556634308));
#583=CARTESIAN_POINT('',(26.6732954675049,23.9730502934048,5.57928802589));
#584=CARTESIAN_POINT('',(26.0395074885737,24.3793173477289,5.61165048543693));
#585=CARTESIAN_POINT('',(25.3599405421738,24.7032446343654,5.64401294498385));
#586=CARTESIAN_POINT('',(24.6452371273983,24.9397592228681,5.67637540453078));
#587=CARTESIAN_POINT('',(23.906590005284,25.0851571274685,5.70873786407771));
#588=CARTESIAN_POINT('',(23.155566912284,25.1371613141561,5.74110032362464));
#589=CARTESIAN_POINT('',(22.4039294012273,25.0949573604802,5.77346278317156));
#590=CARTESIAN_POINT('',(21.6634486474728,24.9592062105844,5.80582524271849));
#591=CARTESIAN_POINT('',(20.9457211025172,24.7320338221048,5.83818770226541));
#592=CARTESIAN_POINT('',(20.2619868908063,24.416997880562,5.87055016181234));
#593=CARTESIAN_POINT('',(19.6229537611155,24.0190320521689,5.90291262135927));
#594=CARTESIAN_POINT('',(19.0386294714645,23.5443688360161,5.93527508090619));
#595=CARTESIAN_POINT('',(18.5181647775264,23.0004415224956,5.96763754045311));
#596=CARTESIAN_POINT('',(18.2191957135557,22.5973267813347,5.98921251348437));
#597=CARTESIAN_POINT('',(18.0828831393331,22.3872229133382,6.));
#598=AXIS2_PLACEMENT_3D('',#599,#600,#601);
#599=CARTESIAN_POINT('',(23.1163338182485,19.1215875597008,-4.));
#600=DIRECTION('',(0.,0.,1.));
#601=DIRECTION('',(0.,1.,0.));
#602=AXIS2_PLACEMENT_3D('',#603,#604,#605);
#603=CARTESIAN_POINT('',(23.1163338182485,19.1215875597008,6.));
#604=DIRECTION('',(0.,0.,1.));
#605=DIRECTION('',(0.,1.,0.));
#606=AXIS2_PLACEMENT_3D('',#607,#608,#609);
#607=CARTESIAN_POINT('',(23.1163338182485,19.1215875597008,-4.));
#608=DIRECTION('',(0.,0.,1.));
#609=DIRECTION('',(0.,1.,0.));
#610=AXIS2_PLACEMENT_3D('',#611,#612,#613);
#611=CARTESIAN_POINT('',(23.1163338182485,19.1215875597008,6.));
#612=DIRECTION('',(0.,0.,1.));
#613=DIRECTION('',(0.,1.,0.));
#614=ORIENTED_EDGE('',*,*,#666,.T.);
#615=ORIENTED_EDGE('',*,*,#667,.T.);
#616=ORIENTED_EDGE('',*,*,#668,.T.);
#617=ORIENTED_EDGE('',*,*,#669,.T.);
#618=ORIENTED_EDGE('',*,*,#670,.T.);
#619=ORIENTED_EDGE('',*,*,#671,.T.);
#620=ORIENTED_EDGE('',*,*,#672,.T.);
#621=ORIENTED_EDGE('',*,*,#673,.T.);
#622=ORIENTED_EDGE('',*,*,#674,.T.);
#623=ORIENTED_EDGE('',*,*,#675,.T.);
#624=ORIENTED_EDGE('',*,*,#676,.T.);
#625=ORIENTED_EDGE('',*,*,#677,.T.);
#626=ORIENTED_EDGE('',*,*,#678,.T.);
#627=ORIENTED_EDGE('',*,*,#679,.T.);
#628=ORIENTED_EDGE('',*,*,#680,.T.);
#629=ORIENTED_EDGE('',*,*,#681,.T.);
#630=ORIENTED_EDGE('',*,*,#682,.T.);
#631=ORIENTED_EDGE('',*,*,#683,.T.);
#632=ORIENTED_EDGE('',*,*,#684,.T.);
#633=ORIENTED_EDGE('',*,*,#685,.T.);
#634=ORIENTED_EDGE('',*,*,#686,.T.);
#635=ORIENTED_EDGE('',*,*,#687,.T.);
#636=ORIENTED_EDGE('',*,*,#688,.T.);
#637=ORIENTED_EDGE('',*,*,#689,.T.);
#638=ORIENTED_EDGE('',*,*,#667,.F.);
#639=ORIENTED_EDGE('',*,*,#679,.F.);
#640=ORIENTED_EDGE('',*,*,#690,.F.);
#641=ORIENTED_EDGE('',*,*,#666,.F.);
#642=ORIENTED_EDGE('',*,*,#677,.F.);
#643=ORIENTED_EDGE('',*,*,#689,.F.);
#644=ORIENTED_EDGE('',*,*,#676,.F.);
#645=ORIENTED_EDGE('',*,*,#688,.F.);
#646=ORIENTED_EDGE('',*,*,#675,.F.);
#647=ORIENTED_EDGE('',*,*,#687,.F.);
#648=ORIENTED_EDGE('',*,*,#674,.F.);
#649=ORIENTED_EDGE('',*,*,#686,.F.);
#650=ORIENTED_EDGE('',*,*,#673,.F.);
#651=ORIENTED_EDGE('',*,*,#685,.F.);
#652=ORIENTED_EDGE('',*,*,#672,.F.);
#653=ORIENTED_EDGE('',*,*,#684,.F.);
#654=ORIENTED_EDGE('',*,*,#671,.F.);
#655=ORIENTED_EDGE('',*,*,#683,.F.);
#656=ORIENTED_EDGE('',*,*,#670,.F.);
#657=ORIENTED_EDGE('',*,*,#682,.F.);
#658=ORIENTED_EDGE('',*,*,#669,.F.);
#659=ORIENTED_EDGE('',*,*,#681,.F.);
#660=ORIENTED_EDGE('',*,*,#668,.F.);
#661=ORIENTED_EDGE('',*,*,#680,.F.);
#662=ORIENTED_EDGE('',*,*,#691,.F.);
#663=ORIENTED_EDGE('',*,*,#678,.F.);
#664=ORIENTED_EDGE('',*,*,#691,.T.);
#665=ORIENTED_EDGE('',*,*,#690,.T.);
#666=EDGE_CURVE('',#692,#692,#693,.T.);
#667=EDGE_CURVE('',#694,#694,#695,.T.);
#668=EDGE_CURVE('',#696,#696,#697,.T.);
#669=EDGE_CURVE('',#698,#698,#699,.T.);
#670=EDGE_CURVE('',#700,#700,#701,.T.);
#671=EDGE_CURVE('',#702,#702,#703,.T.);
#672=EDGE_CURVE('',#704,#704,#705,.T.);
#673=EDGE_CURVE('',#706,#706,#707,.T.);
#674=EDGE_CURVE('',#708,#708,#709,.T.);
#675=EDGE_CURVE('',#710,#710,#711,.T.);
#676=EDGE_CURVE('',#712,#712,#713,.T.);
#677=EDGE_CURVE('',#714,#714,#715,.T.);
#678=EDGE_CURVE('',#716,#716,#717,.T.);
#679=EDGE_CURVE('',#718,#718,#719,.F.);
#680=EDGE_CURVE('',#720,#720,#721,.F.);
#681=EDGE_CURVE('',#722,#722,#723,.F.);
#682=EDGE_CURVE('',#724,#724,#725,.F.);
#683=EDGE_CURVE('',#726,#726,#727,.F.);
#684=EDGE_CURVE('',#728,#728,#729,.F.);
#685=EDGE_CURVE('',#730,#730,#731,.F.);
#686=EDGE_CURVE('',#732,#732,#733,.F.);
#687=EDGE_CURVE('',#734,#734,#735,.F.);
#688=EDGE_CURVE('',#736,#736,#737,.F.);
#689=EDGE_CURVE('',#738,#738,#739,.F.);
#690=EDGE_CURVE('',#740,#740,#741,.F.);
#691=EDGE_CURVE('',#742,#742,#743,.T.);
#692=VERTEX_POINT('',#744);
#693=CIRCLE('',#745,42.95);
#694=VERTEX_POINT('',#749);
#695=CIRCLE('',#750,5.18810118375);
#696=VERTEX_POINT('',#754);
#697=CIRCLE('',#755,3.);
#698=VERTEX_POINT('',#759);
#699=CIRCLE('',#760,1.5);
#700=VERTEX_POINT('',#764);
#701=CIRCLE('',#765,1.5);
#702=VERTEX_POINT('',#769);
#703=CIRCLE('',#770,1.5);
#704=VERTEX_POINT('',#774);
#705=CIRCLE('',#775,1.5);
#706=VERTEX_POINT('',#779);
#707=CIRCLE('',#780,1.5);
#708=VERTEX_POINT('',#784);
#709=CIRCLE('',#785,1.5);
#710=VERTEX_POINT('',#789);
#711=CIRCLE('',#790,1.5);
#712=VERTEX_POINT('',#794);
#713=CIRCLE('',#795,1.5);
#714=VERTEX_POINT('',#799);
#715=CIRCLE('',#800,2.);
#716=VERTEX_POINT('',#804);
#717=CIRCLE('',#805,45.);
#718=VERTEX_POINT('',#809);
#719=CIRCLE('',#810,5.18810118375);
#720=VERTEX_POINT('',#814);
#721=CIRCLE('',#815,3.);
#722=VERTEX_POINT('',#819);
#723=CIRCLE('',#820,1.5);
#724=VERTEX_POINT('',#824);
#725=CIRCLE('',#825,1.5);
#726=VERTEX_POINT('',#829);
#727=CIRCLE('',#830,1.5);
#728=VERTEX_POINT('',#834);
#729=CIRCLE('',#835,1.5);
#730=VERTEX_POINT('',#839);
#731=CIRCLE('',#840,1.5);
#732=VERTEX_POINT('',#844);
#733=CIRCLE('',#845,1.5);
#734=VERTEX_POINT('',#849);
#735=CIRCLE('',#850,1.5);
#736=VERTEX_POINT('',#854);
#737=CIRCLE('',#855,1.5);
#738=VERTEX_POINT('',#859);
#739=CIRCLE('',#860,2.);
#740=VERTEX_POINT('',#864);
#741=CIRCLE('',#865,42.95);
#742=VERTEX_POINT('',#869);
#743=CIRCLE('',#870,45.);
#744=CARTESIAN_POINT('',(42.95,-5.25985800233788E-15,0.));
#745=AXIS2_PLACEMENT_3D('',#746,#747,#748);
#746=CARTESIAN_POINT('',(0.,0.,0.));
#747=DIRECTION('',(0.,0.,1.));
#748=DIRECTION('',(1.,0.,0.));
#749=CARTESIAN_POINT('',(23.1163338182485,24.3096887434508,-8.88178419700125E-16));
#750=AXIS2_PLACEMENT_3D('',#751,#752,#753);
#751=CARTESIAN_POINT('',(23.1163338182485,19.1215875597008,0.));
#752=DIRECTION('',(0.,0.,-1.));
#753=DIRECTION('',(-3.06161699786838E-16,1.,0.));
#754=CARTESIAN_POINT('',(-14.526189597629,-14.4783274996791,-8.88178419700125E-16));
#755=AXIS2_PLACEMENT_3D('',#756,#757,#758);
#756=CARTESIAN_POINT('',(-17.526189597629,-14.4783274996791,0.));
#757=DIRECTION('',(0.,0.,-1.));
#758=DIRECTION('',(1.,1.22464679914735E-16,0.));
#759=CARTESIAN_POINT('',(1.50000000000001,-40.,0.));
#760=AXIS2_PLACEMENT_3D('',#761,#762,#763);
#761=CARTESIAN_POINT('',(7.34788079488412E-15,-40.,0.));
#762=DIRECTION('',(0.,0.,-1.));
#763=DIRECTION('',(1.,1.22464679914735E-16,0.));
#764=CARTESIAN_POINT('',(-40.,-1.50000000000001,0.));
#765=AXIS2_PLACEMENT_3D('',#766,#767,#768);
#766=CARTESIAN_POINT('',(-40.,-9.79717439317882E-15,0.));
#767=DIRECTION('',(0.,0.,-1.));
#768=DIRECTION('',(1.22464679914735E-16,-1.,0.));
#769=CARTESIAN_POINT('',(-1.50000000000001,40.,0.));
#770=AXIS2_PLACEMENT_3D('',#771,#772,#773);
#771=CARTESIAN_POINT('',(-1.22464679914735E-14,40.,0.));
#772=DIRECTION('',(0.,0.,-1.));
#773=DIRECTION('',(-1.,-1.22464679914735E-16,0.));
#774=CARTESIAN_POINT('',(40.,1.50000000000001,0.));
#775=AXIS2_PLACEMENT_3D('',#776,#777,#778);
#776=CARTESIAN_POINT('',(40.,1.46957615897682E-14,0.));
#777=DIRECTION('',(0.,0.,-1.));
#778=DIRECTION('',(-1.22464679914735E-16,1.,0.));
#779=CARTESIAN_POINT('',(6.5,9.79717439317883E-16,0.));
#780=AXIS2_PLACEMENT_3D('',#781,#782,#783);
#781=CARTESIAN_POINT('',(5.,6.12323399573677E-16,0.));
#782=DIRECTION('',(0.,0.,-1.));
#783=DIRECTION('',(1.,1.22464679914735E-16,0.));
#784=CARTESIAN_POINT('',(1.37772764904077E-15,-6.5,0.));
#785=AXIS2_PLACEMENT_3D('',#786,#787,#788);
#786=CARTESIAN_POINT('',(9.18485099360515E-16,-5.,0.));
#787=DIRECTION('',(0.,0.,-1.));
#788=DIRECTION('',(1.83697019872103E-16,-1.,0.));
#789=CARTESIAN_POINT('',(-6.5,-1.77573785876366E-15,0.));
#790=AXIS2_PLACEMENT_3D('',#791,#792,#793);
#791=CARTESIAN_POINT('',(-5.,-1.22464679914735E-15,0.));
#792=DIRECTION('',(0.,0.,-1.));
#793=DIRECTION('',(-1.,-2.44929359829471E-16,0.));
#794=CARTESIAN_POINT('',(-2.17374806848655E-15,6.5,0.));
#795=AXIS2_PLACEMENT_3D('',#796,#797,#798);
#796=CARTESIAN_POINT('',(-1.53080849893419E-15,5.,0.));
#797=DIRECTION('',(0.,0.,-1.));
#798=DIRECTION('',(-3.06161699786838E-16,1.,0.));
#799=CARTESIAN_POINT('',(1.22464679914735E-16,-2.,-8.88178419700125E-16));
#800=AXIS2_PLACEMENT_3D('',#801,#802,#803);
#801=CARTESIAN_POINT('',(0.,0.,0.));
#802=DIRECTION('',(0.,0.,-1.));
#803=DIRECTION('',(-6.12323399573676E-17,-1.,0.));
#804=CARTESIAN_POINT('',(45.,1.10218211923262E-14,-4.));
#805=AXIS2_PLACEMENT_3D('',#806,#807,#808);
#806=CARTESIAN_POINT('',(0.,0.,-4.));
#807=DIRECTION('',(0.,0.,-1.));
#808=DIRECTION('',(1.,1.22464679914735E-16,0.));
#809=CARTESIAN_POINT('',(23.1163338182485,24.3096887434508,-4.));
#810=AXIS2_PLACEMENT_3D('',#811,#812,#813);
#811=CARTESIAN_POINT('',(23.1163338182485,19.1215875597008,-4.));
#812=DIRECTION('',(0.,0.,-1.));
#813=DIRECTION('',(-3.06161699786838E-16,1.,0.));
#814=CARTESIAN_POINT('',(-14.526189597629,-14.4783274996791,-4.));
#815=AXIS2_PLACEMENT_3D('',#816,#817,#818);
#816=CARTESIAN_POINT('',(-17.526189597629,-14.4783274996791,-4.));
#817=DIRECTION('',(0.,0.,-1.));
#818=DIRECTION('',(1.,1.22464679914735E-16,0.));
#819=CARTESIAN_POINT('',(1.50000000000001,-40.,-4.));
#820=AXIS2_PLACEMENT_3D('',#821,#822,#823);
#821=CARTESIAN_POINT('',(7.34788079488412E-15,-40.,-4.));
#822=DIRECTION('',(0.,0.,-1.));
#823=DIRECTION('',(1.,1.22464679914735E-16,0.));
#824=CARTESIAN_POINT('',(-40.,-1.50000000000001,-4.));
#825=AXIS2_PLACEMENT_3D('',#826,#827,#828);
#826=CARTESIAN_POINT('',(-40.,-9.79717439317882E-15,-4.));
#827=DIRECTION('',(0.,0.,-1.));
#828=DIRECTION('',(1.22464679914735E-16,-1.,0.));
#829=CARTESIAN_POINT('',(-1.50000000000001,40.,-4.));
#830=AXIS2_PLACEMENT_3D('',#831,#832,#833);
#831=CARTESIAN_POINT('',(-1.22464679914735E-14,40.,-4.));
#832=DIRECTION('',(0.,0.,-1.));
#833=DIRECTION('',(-1.,-1.22464679914735E-16,0.));
#834=CARTESIAN_POINT('',(40.,1.50000000000001,-4.));
#835=AXIS2_PLACEMENT_3D('',#836,#837,#838);
#836=CARTESIAN_POINT('',(40.,1.46957615897682E-14,-4.));
#837=DIRECTION('',(0.,0.,-1.));
#838=DIRECTION('',(-1.22464679914735E-16,1.,0.));
#839=CARTESIAN_POINT('',(6.5,9.79717439317883E-16,-4.));
#840=AXIS2_PLACEMENT_3D('',#841,#842,#843);
#841=CARTESIAN_POINT('',(5.,6.12323399573677E-16,-4.));
#842=DIRECTION('',(0.,0.,-1.));
#843=DIRECTION('',(1.,1.22464679914735E-16,0.));
#844=CARTESIAN_POINT('',(1.37772764904077E-15,-6.5,-4.));
#845=AXIS2_PLACEMENT_3D('',#846,#847,#848);
#846=CARTESIAN_POINT('',(9.18485099360515E-16,-5.,-4.));
#847=DIRECTION('',(0.,0.,-1.));
#848=DIRECTION('',(1.83697019872103E-16,-1.,0.));
#849=CARTESIAN_POINT('',(-6.5,-1.77573785876366E-15,-4.));
#850=AXIS2_PLACEMENT_3D('',#851,#852,#853);
#851=CARTESIAN_POINT('',(-5.,-1.22464679914735E-15,-4.));
#852=DIRECTION('',(0.,0.,-1.));
#853=DIRECTION('',(-1.,-2.44929359829471E-16,0.));
#854=CARTESIAN_POINT('',(-2.17374806848655E-15,6.5,-4.));
#855=AXIS2_PLACEMENT_3D('',#856,#857,#858);
#856=CARTESIAN_POINT('',(-1.53080849893419E-15,5.,-4.));
#857=DIRECTION('',(0.,0.,-1.));
#858=DIRECTION('',(-3.06161699786838E-16,1.,0.));
#859=CARTESIAN_POINT('',(1.22464679914735E-16,-2.,-4.));
#860=AXIS2_PLACEMENT_3D('',#861,#862,#863);
#861=CARTESIAN_POINT('',(0.,0.,-4.));
#862=DIRECTION('',(0.,0.,-1.));
#863=DIRECTION('',(-6.12323399573676E-17,-1.,0.));
#864=CARTESIAN_POINT('',(42.95,-5.25985800233788E-15,20.));
#865=AXIS2_PLACEMENT_3D('',#866,#867,#868);
#866=CARTESIAN_POINT('',(0.,0.,20.));
#867=DIRECTION('',(0.,0.,1.));
#868=DIRECTION('',(1.,0.,0.));
#869=CARTESIAN_POINT('',(45.,-5.51091059616309E-15,20.));
#870=AXIS2_PLACEMENT_3D('',#871,#872,#873);
#871=CARTESIAN_POINT('',(0.,0.,20.));
#872=DIRECTION('',(0.,0.,1.));
#873=DIRECTION('',(1.,0.,0.));
ENDSEC;
END-ISO-10303-21;
